# xmcd
#
# Track frame offsets:
#	150
#	20657
#	36555
#	59257
#	76652
#	88472
#	100879
#	116640
#	134720
#	146612
#	165383
#	188792
#	209763
#	224498
#	241901
#	264295
#	282259
#	297584
#	316738
#	326005
#
# Disc length: 4713 seconds
#
# Revision: 0
# Processed by: cddbd v1.5.2PL0 Copyright (c) Steve Scherf et al.
# Submitted via: EZCDAudioConverter 7.0.6.1
#
DISCID=3a126714
DTITLE=Strangers In The Room 2/3
DYEAR=1900
DGENRE=
TTITLE0=Matthews Southern Comfort - Woodstock
TTITLE1=The Strawbs - The Man Who Called Himself Jesus
TTITLE2=The Woods Band - As I Roved Out
TTITLE3=Fairport Convention - Sir Patrick Spens
TTITLE4=Bill Fay - Be Not So Fearful [Demo]
TTITLE5=Unicorn - I've Loved Her So Long
TTITLE6=Al Jones - Sarah In The Isle Of Wight
TTITLE7=Lea Nicholson and Stan Ellison - Song For A Dead Mole
TTITLE8=Bridget St. John - There's A Place I Know
TTITLE9=Jeremy Harmer - People Smile With Ghosts In The Land Of Make-Believe
TTITLE10=Urban Clearway - Pucka-Ri
TTITLE11=C.O.B. - Scranky Black Farmer
TTITLE12=Daylight - Lady Of St. Clare
TTITLE13=Mary-Anne - Love Has Gone
TTITLE14=Mick Softley - Time Machine
TTITLE15=Third Ear Band - Fleance
TTITLE16=Storyteller - Morning Glow
TTITLE17=Dando Shaft - Riverboat
TTITLE18=Fresh Maggots - What I Am
TTITLE19=Canticle - Like A Rolling Stone
EXTD=
EXTT0=
EXTT1=
EXTT2=
EXTT3=
EXTT4=
EXTT5=
EXTT6=
EXTT7=
EXTT8=
EXTT9=
EXTT10=
EXTT11=
EXTT12=
EXTT13=
EXTT14=
EXTT15=
EXTT16=
EXTT17=
EXTT18=
EXTT19=
PLAYORDER=
